<?xml version="1.0" encoding="UTF-8" standalone="no"?><!DOCTYPE svg PUBLIC "-//W3C//DTD SVG 1.1//EN" "http://www.w3.org/Graphics/SVG/1.1/DTD/svg11.dtd"><svg width="100%" height="100%" viewBox="0 0 62 38" version="1.1" xmlns="http://www.w3.org/2000/svg" xmlns:xlink="http://www.w3.org/1999/xlink" xml:space="preserve" xmlns:serif="http://www.serif.com/" style="fill-rule:evenodd;clip-rule:evenodd;stroke-linejoin:round;stroke-miterlimit:2;"><g><path d="M27.558,5.586c0.932,-0.929 2.426,-0.97 3.409,-0.095c6.59,5.87 29.548,26.32 29.548,26.32c-0,0 -0.361,0.746 -0.769,1.586c-0.295,0.609 -0.825,1.071 -1.468,1.28c-0.643,0.209 -1.344,0.148 -1.94,-0.171c-5.643,-3.012 -20.106,-10.731 -24.305,-12.973c-0.725,-0.387 -1.595,-0.391 -2.324,-0.009c-4.039,2.115 -17.596,9.213 -24.898,13.035c-0.858,0.449 -1.899,0.359 -2.667,-0.23c-0.768,-0.59 -1.124,-1.571 -0.913,-2.516c0,-0.002 0.001,-0.002 0.001,-0.002c0,0 20.311,-20.233 26.327,-26.225Z" style="fill:#9f4204;"/><path d="M29.071,2.518c0.469,-0.494 1.121,-0.774 1.802,-0.774c0.681,0 1.333,0.28 1.802,0.774c6.427,6.762 27.839,29.293 27.839,29.293c-0,0 -23.102,-11.729 -28.516,-14.478c-0.707,-0.359 -1.544,-0.359 -2.251,0c-5.414,2.749 -28.516,14.478 -28.516,14.478c0,0 21.413,-22.531 27.839,-29.293Z" style="fill:url(#_Linear1);"/></g><defs><linearGradient id="_Linear1" x1="0" y1="0" x2="1" y2="0" gradientUnits="userSpaceOnUse" gradientTransform="matrix(0,10.265389,-10.265389,0,30.286361,10.225157)"><stop offset="0" style="stop-color:#ffd118;stop-opacity:1"/><stop offset="1" style="stop-color:#ef8c1d;stop-opacity:1"/></linearGradient></defs></svg>