<?xml version="1.0" encoding="UTF-8" standalone="no"?>
<!DOCTYPE svg PUBLIC "-//W3C//DTD SVG 1.1//EN" "http://www.w3.org/Graphics/SVG/1.1/DTD/svg11.dtd">
<svg width="100%" height="100%" viewBox="0 0 256 256" version="1.1" xmlns="http://www.w3.org/2000/svg" xmlns:xlink="http://www.w3.org/1999/xlink" xml:space="preserve" xmlns:serif="http://www.serif.com/" style="fill-rule:evenodd;clip-rule:evenodd;stroke-linejoin:round;stroke-miterlimit:2;">
    <g transform="matrix(1.416535,0,0,1.416535,-88.03356,-45.478285)">
        <path d="M72.504,102.121C72.164,100.868 72.181,99.517 72.6,98.226C73.469,95.551 75.889,93.684 78.697,93.522L122.734,90.976C124.256,90.888 125.721,90.365 126.954,89.468C128.188,88.572 129.138,87.341 129.692,85.921L145.722,44.825C146.743,42.205 149.267,40.481 152.079,40.481C154.891,40.481 157.415,42.205 158.437,44.825L174.467,85.921C175.021,87.341 175.971,88.572 177.204,89.468C178.438,90.365 179.902,90.888 181.425,90.976L225.462,93.522C228.269,93.684 230.69,95.551 231.559,98.226C231.969,99.49 231.994,100.813 231.675,102.044C231.821,103.976 231.801,106.526 231.559,109.889C231.356,112.693 231.567,115.497 229.391,117.278L195.261,145.222C194.744,145.645 194.286,146.129 193.894,146.661L203.79,184.407C203.902,184.835 203.971,185.266 203.999,185.696L204.162,186.157C204.875,188.877 203.475,201.669 201.2,203.322C198.925,204.975 195.87,205.063 193.503,203.545L156.38,179.72C155.096,178.896 153.604,178.458 152.079,178.458C150.555,178.458 149.062,178.896 147.779,179.72L110.656,203.545C108.289,205.063 105.233,204.975 102.958,203.322C100.684,201.669 99.427,188.103 100.14,185.383L100.213,185.179C100.25,184.921 100.301,184.663 100.369,184.407L110.265,146.661C109.873,146.129 109.415,145.645 108.898,145.222L74.767,117.278C72.592,115.497 72.797,112.694 72.6,109.889C72.37,106.61 72.356,104.075 72.504,102.121Z" style="fill:rgb(107,41,0);"/>
    </g>
    <g transform="matrix(1.362317,0,0,1.362317,-79.180384,-38.956155)">
        <path d="M79.323,96.095L226.089,96.095C228.896,96.257 232.701,94.026 231.559,109.889C231.356,112.693 231.567,115.497 229.391,117.278L195.261,145.222C194.081,146.188 193.204,147.472 192.732,148.922C192.261,150.372 192.216,151.927 192.603,153.402L204.162,186.157C204.875,188.877 203.475,201.669 201.2,203.322C198.925,204.975 195.87,205.063 193.503,203.545L156.38,179.72C155.096,178.896 153.604,178.458 152.079,178.458C150.555,178.458 149.062,178.896 147.779,179.72L110.656,203.545C108.289,205.063 105.233,204.975 102.958,203.322C100.684,201.669 99.427,188.103 100.14,185.383L111.556,153.402C111.942,151.927 111.897,150.372 111.426,148.922C110.955,147.472 110.078,146.188 108.898,145.222L74.767,117.278C72.592,115.497 72.797,112.694 72.6,109.889C71.346,92.015 76.516,96.257 79.323,96.095Z" style="fill:rgb(183,70,0);"/>
    </g>
    <g transform="matrix(1.362317,0,0,1.362317,-79.180384,-54.845079)">
        <path d="M145.722,56.488C146.743,53.869 149.267,52.144 152.079,52.144C154.891,52.144 157.415,53.869 158.437,56.488L174.467,97.584C175.021,99.004 175.971,100.236 177.204,101.132C178.438,102.028 179.902,102.551 181.425,102.639L225.462,105.185C228.269,105.347 230.69,107.215 231.559,109.889C232.427,112.563 231.567,115.497 229.391,117.278L195.261,145.222C194.081,146.188 193.204,147.472 192.732,148.922C192.261,150.372 192.216,151.927 192.603,153.402L203.79,196.071C204.503,198.791 203.475,201.669 201.2,203.322C198.925,204.975 195.87,205.063 193.503,203.545L156.38,179.72C155.096,178.896 153.604,178.458 152.079,178.458C150.555,178.458 149.062,178.896 147.779,179.72L110.656,203.545C108.289,205.063 105.233,204.975 102.958,203.322C100.684,201.669 99.655,198.791 100.369,196.071L111.556,153.402C111.942,151.927 111.897,150.372 111.426,148.922C110.955,147.472 110.078,146.188 108.898,145.222L74.767,117.278C72.592,115.497 71.731,112.563 72.6,109.889C73.469,107.215 75.889,105.347 78.697,105.185L122.734,102.639C124.256,102.551 125.721,102.028 126.954,101.132C128.188,100.236 129.138,99.004 129.692,97.584L145.722,56.488Z" style="fill:url(#_Radial1);"/>
    </g>
    <g transform="matrix(1.046694,0,0,1.046694,-5.977035,-5.976875)">
        <path d="M63.819,88.403L89.806,86.901C91.787,86.786 93.693,86.105 95.299,84.939C96.904,83.773 98.141,82.17 98.862,80.321L119.725,26.834C121.055,23.424 124.34,21.179 128,21.179C131.66,21.179 134.945,23.424 136.275,26.834L157.138,80.321C157.859,82.17 159.096,83.773 160.701,84.939C162.307,86.105 164.213,86.786 166.194,86.901L223.511,90.214C227.165,90.425 230.315,92.856 231.446,96.337C232.576,99.817 231.457,103.636 228.625,105.954L184.202,142.325C182.667,143.582 181.525,145.253 180.912,147.14C180.298,149.028 180.24,151.051 180.743,152.971L185.692,171.845C176.537,164.089 175.542,160.914 173.666,158.1C149.552,121.929 134.915,125.749 113.938,117.358C110.305,115.905 75.088,108.768 63.819,88.403Z" style="fill:white;fill-opacity:0.31;"/>
    </g>
    <defs>
        <radialGradient id="_Radial1" cx="0" cy="0" r="1" gradientUnits="userSpaceOnUse" gradientTransform="matrix(-90.852719,150.922297,-150.922297,-90.852719,148.97458,107.429005)"><stop offset="0" style="stop-color:rgb(255,147,0);stop-opacity:1"/><stop offset="1" style="stop-color:rgb(255,240,19);stop-opacity:1"/></radialGradient>
    </defs>
</svg>
