<?xml version="1.0" encoding="UTF-8" standalone="no"?>
<!DOCTYPE svg PUBLIC "-//W3C//DTD SVG 1.1//EN" "http://www.w3.org/Graphics/SVG/1.1/DTD/svg11.dtd">
<svg width="100%" height="100%" viewBox="0 0 256 256" version="1.1" xmlns="http://www.w3.org/2000/svg" xmlns:xlink="http://www.w3.org/1999/xlink" xml:space="preserve" xmlns:serif="http://www.serif.com/" style="fill-rule:evenodd;clip-rule:evenodd;stroke-linejoin:round;stroke-miterlimit:2;">
    <g transform="matrix(1.02444,0,0,1.02444,-3.128297,-3.535262)">
        <path d="M30.385,216.349L30.385,72.954C30.385,57.108 43.25,44.244 59.095,44.244L196.905,44.244C212.75,44.244 225.615,57.108 225.615,72.954L225.615,216.349C225.615,232.195 212.75,245.06 196.905,245.06L59.095,245.06C43.25,245.06 30.385,232.195 30.385,216.349ZM49.72,92.019L49.72,197.284C49.72,209.991 60.037,220.308 72.744,220.308L183.256,220.308C195.963,220.308 206.28,209.991 206.28,197.284L206.28,92.019C206.28,79.312 195.963,68.996 183.256,68.996L72.744,68.996C60.037,68.996 49.72,79.312 49.72,92.019Z" style="fill:rgb(76,46,0);"/>
    </g>
    <g>
        <g transform="matrix(0.84664,0,0,0.84664,11.265877,44.320403)">
            <path d="M253.176,40.419L253.176,203.19C253.176,221.906 237.981,237.101 219.265,237.101L56.493,237.101C37.778,237.101 22.583,221.906 22.583,203.19L22.583,40.419C22.583,21.703 37.778,6.508 56.493,6.508L219.265,6.508C237.981,6.508 253.176,21.703 253.176,40.419ZM236.311,52.323C236.311,36.345 223.339,23.372 207.361,23.372L68.398,23.372C52.419,23.372 39.447,36.345 39.447,52.323L39.447,191.286C39.447,207.264 52.419,220.236 68.398,220.236L207.361,220.236C223.339,220.236 236.311,207.264 236.311,191.286L236.311,52.323Z" style="fill:url(#_Linear1);"/>
        </g>
        <g transform="matrix(0.84664,0,0,0.84664,11.265877,38.734028)">
            <path d="M253.176,40.419L253.176,203.19C253.176,221.906 237.981,237.101 219.265,237.101L56.493,237.101C37.778,237.101 22.583,221.906 22.583,203.19L22.583,40.419C22.583,21.703 37.778,6.508 56.493,6.508L219.265,6.508C237.981,6.508 253.176,21.703 253.176,40.419ZM236.311,52.323C236.311,36.345 223.339,23.372 207.361,23.372L68.398,23.372C52.419,23.372 39.447,36.345 39.447,52.323L39.447,191.286C39.447,207.264 52.419,220.236 68.398,220.236L207.361,220.236C223.339,220.236 236.311,207.264 236.311,191.286L236.311,52.323Z" style="fill:url(#_Linear2);"/>
        </g>
    </g>
    <defs>
        <linearGradient id="_Linear1" x1="0" y1="0" x2="1" y2="0" gradientUnits="userSpaceOnUse" gradientTransform="matrix(0,247.445904,-247.445904,0,145.547245,6.507792)"><stop offset="0" style="stop-color:rgb(174,112,15);stop-opacity:1"/><stop offset="1" style="stop-color:rgb(101,56,0);stop-opacity:1"/></linearGradient>
        <linearGradient id="_Linear2" x1="0" y1="0" x2="1" y2="0" gradientUnits="userSpaceOnUse" gradientTransform="matrix(0,269.022955,-269.022955,0,148.051998,-15.131721)"><stop offset="0" style="stop-color:rgb(252,216,79);stop-opacity:1"/><stop offset="0.2" style="stop-color:rgb(254,189,117);stop-opacity:1"/><stop offset="0.68" style="stop-color:rgb(207,117,5);stop-opacity:1"/><stop offset="1" style="stop-color:rgb(255,152,49);stop-opacity:1"/></linearGradient>
    </defs>
</svg>
