<?xml version="1.0" encoding="UTF-8" standalone="no"?><!DOCTYPE svg PUBLIC "-//W3C//DTD SVG 1.1//EN" "http://www.w3.org/Graphics/SVG/1.1/DTD/svg11.dtd"><svg width="100%" height="100%" viewBox="0 0 194 194" version="1.1" xmlns="http://www.w3.org/2000/svg" xmlns:xlink="http://www.w3.org/1999/xlink" xml:space="preserve" xmlns:serif="http://www.serif.com/" style="fill-rule:evenodd;clip-rule:evenodd;stroke-linejoin:round;stroke-miterlimit:2;"><circle id="RED_roundpattern" cx="96.727" cy="97" r="96.639" style="fill:none;"/><clipPath id="_clip1"><circle cx="96.727" cy="97" r="96.639"/></clipPath><g clip-path="url(#_clip1)"><path id="RED_roundpattern1" serif:id="RED_roundpattern" d="M-13.072,201.787l0,-176.27c0,-15.658 12.712,-28.371 28.371,-28.371l169.403,0c15.658,0 28.371,12.712 28.371,28.371l-0,176.27c0,15.658 -12.712,28.371 -28.371,28.371l-169.403,0c-15.658,0 -28.371,-12.712 -28.371,-28.371Z" style="fill:url(#_Radial2);"/><clipPath id="_clip3"><path d="M-13.072,201.787l0,-176.27c0,-15.658 12.712,-28.371 28.371,-28.371l169.403,0c15.658,0 28.371,12.712 28.371,28.371l-0,176.27c0,15.658 -12.712,28.371 -28.371,28.371l-169.403,0c-15.658,0 -28.371,-12.712 -28.371,-28.371Z"/></clipPath><g clip-path="url(#_clip3)"><path d="M-3.258,217.258c3.575,0 6.477,2.902 6.477,6.477c0,3.575 -2.902,6.477 -6.477,6.477c-3.575,0 -6.477,-2.902 -6.477,-6.477c0,-3.575 2.902,-6.477 6.477,-6.477Zm17.21,0c3.575,0 6.477,2.902 6.477,6.477c0,3.575 -2.902,6.477 -6.477,6.477c-3.575,0 -6.477,-2.902 -6.477,-6.477c0,-3.575 2.902,-6.477 6.477,-6.477Zm17.21,0c3.575,0 6.477,2.902 6.477,6.477c0,3.575 -2.902,6.477 -6.477,6.477c-3.575,0 -6.477,-2.902 -6.477,-6.477c0,-3.575 2.902,-6.477 6.477,-6.477Zm17.21,0c3.575,0 6.477,2.902 6.477,6.477c0,3.575 -2.902,6.477 -6.477,6.477c-3.575,0 -6.477,-2.902 -6.477,-6.477c0,-3.575 2.902,-6.477 6.477,-6.477Zm17.21,0c3.575,0 6.477,2.902 6.477,6.477c0,3.575 -2.902,6.477 -6.477,6.477c-3.575,0 -6.477,-2.902 -6.477,-6.477c0,-3.575 2.902,-6.477 6.477,-6.477Zm17.21,0c3.575,0 6.477,2.902 6.477,6.477c0,3.575 -2.902,6.477 -6.477,6.477c-3.575,0 -6.477,-2.902 -6.477,-6.477c0,-3.575 2.902,-6.477 6.477,-6.477Zm17.21,0c3.575,0 6.477,2.902 6.477,6.477c0,3.575 -2.902,6.477 -6.477,6.477c-3.575,0 -6.477,-2.902 -6.477,-6.477c0,-3.575 2.902,-6.477 6.477,-6.477Zm17.21,0c3.575,0 6.477,2.902 6.477,6.477c0,3.575 -2.902,6.477 -6.477,6.477c-3.575,0 -6.477,-2.902 -6.477,-6.477c0,-3.575 2.902,-6.477 6.477,-6.477Zm17.21,0c3.575,0 6.477,2.902 6.477,6.477c0,3.575 -2.902,6.477 -6.477,6.477c-3.575,0 -6.477,-2.902 -6.477,-6.477c0,-3.575 2.902,-6.477 6.477,-6.477Zm17.21,0c3.575,0 6.477,2.902 6.477,6.477c0,3.575 -2.902,6.477 -6.477,6.477c-3.575,0 -6.477,-2.902 -6.477,-6.477c0,-3.575 2.902,-6.477 6.477,-6.477Zm17.21,0c3.575,0 6.477,2.902 6.477,6.477c0,3.575 -2.902,6.477 -6.477,6.477c-3.575,0 -6.477,-2.902 -6.477,-6.477c0,-3.575 2.902,-6.477 6.477,-6.477Zm17.21,0c3.575,0 6.477,2.902 6.477,6.477c0,3.575 -2.902,6.477 -6.477,6.477c-3.575,0 -6.477,-2.902 -6.477,-6.477c0,-3.575 2.902,-6.477 6.477,-6.477Zm17.21,0c3.575,0 6.477,2.902 6.477,6.477c0,3.575 -2.902,6.477 -6.477,6.477c-3.575,0 -6.477,-2.902 -6.477,-6.477c0,-3.575 2.902,-6.477 6.477,-6.477Zm-206.516,-19.668c3.575,0 6.477,2.902 6.477,6.477c0,3.575 -2.902,6.477 -6.477,6.477c-3.575,0 -6.477,-2.902 -6.477,-6.477c0,-3.575 2.902,-6.477 6.477,-6.477Zm17.21,0c3.575,0 6.477,2.902 6.477,6.477c0,3.575 -2.902,6.477 -6.477,6.477c-3.575,0 -6.477,-2.902 -6.477,-6.477c0,-3.575 2.902,-6.477 6.477,-6.477Zm17.21,0c3.575,0 6.477,2.902 6.477,6.477c0,3.575 -2.902,6.477 -6.477,6.477c-3.575,0 -6.477,-2.902 -6.477,-6.477c0,-3.575 2.902,-6.477 6.477,-6.477Zm17.21,0c3.575,0 6.477,2.902 6.477,6.477c0,3.575 -2.902,6.477 -6.477,6.477c-3.575,0 -6.477,-2.902 -6.477,-6.477c0,-3.575 2.902,-6.477 6.477,-6.477Zm17.21,0c3.575,0 6.477,2.902 6.477,6.477c0,3.575 -2.902,6.477 -6.477,6.477c-3.575,0 -6.477,-2.902 -6.477,-6.477c0,-3.575 2.902,-6.477 6.477,-6.477Zm17.21,0c3.575,0 6.477,2.902 6.477,6.477c0,3.575 -2.902,6.477 -6.477,6.477c-3.575,0 -6.477,-2.902 -6.477,-6.477c0,-3.575 2.902,-6.477 6.477,-6.477Zm17.21,0c3.575,0 6.477,2.902 6.477,6.477c0,3.575 -2.902,6.477 -6.477,6.477c-3.575,0 -6.477,-2.902 -6.477,-6.477c0,-3.575 2.902,-6.477 6.477,-6.477Zm17.21,0c3.575,0 6.477,2.902 6.477,6.477c0,3.575 -2.902,6.477 -6.477,6.477c-3.575,0 -6.477,-2.902 -6.477,-6.477c0,-3.575 2.902,-6.477 6.477,-6.477Zm17.21,0c3.575,0 6.477,2.902 6.477,6.477c0,3.575 -2.902,6.477 -6.477,6.477c-3.575,0 -6.477,-2.902 -6.477,-6.477c0,-3.575 2.902,-6.477 6.477,-6.477Zm17.21,0c3.575,0 6.477,2.902 6.477,6.477c0,3.575 -2.902,6.477 -6.477,6.477c-3.575,0 -6.477,-2.902 -6.477,-6.477c0,-3.575 2.902,-6.477 6.477,-6.477Zm17.21,0c3.575,0 6.477,2.902 6.477,6.477c0,3.575 -2.902,6.477 -6.477,6.477c-3.575,0 -6.477,-2.902 -6.477,-6.477c0,-3.575 2.902,-6.477 6.477,-6.477Zm17.21,0c3.575,0 6.477,2.902 6.477,6.477c0,3.575 -2.902,6.477 -6.477,6.477c-3.575,0 -6.477,-2.902 -6.477,-6.477c0,-3.575 2.902,-6.477 6.477,-6.477Zm17.21,0c3.575,0 6.477,2.902 6.477,6.477c0,3.575 -2.902,6.477 -6.477,6.477c-3.575,0 -6.477,-2.902 -6.477,-6.477c0,-3.575 2.902,-6.477 6.477,-6.477Zm-206.516,-19.668c3.575,0 6.477,2.902 6.477,6.477c0,3.575 -2.902,6.477 -6.477,6.477c-3.575,0 -6.477,-2.902 -6.477,-6.477c0,-3.575 2.902,-6.477 6.477,-6.477Zm17.21,0c3.575,0 6.477,2.902 6.477,6.477c0,3.575 -2.902,6.477 -6.477,6.477c-3.575,0 -6.477,-2.902 -6.477,-6.477c0,-3.575 2.902,-6.477 6.477,-6.477Zm17.21,0c3.575,0 6.477,2.902 6.477,6.477c0,3.575 -2.902,6.477 -6.477,6.477c-3.575,0 -6.477,-2.902 -6.477,-6.477c0,-3.575 2.902,-6.477 6.477,-6.477Zm17.21,0c3.575,0 6.477,2.902 6.477,6.477c0,3.575 -2.902,6.477 -6.477,6.477c-3.575,0 -6.477,-2.902 -6.477,-6.477c0,-3.575 2.902,-6.477 6.477,-6.477Zm17.21,0c3.575,0 6.477,2.902 6.477,6.477c0,3.575 -2.902,6.477 -6.477,6.477c-3.575,0 -6.477,-2.902 -6.477,-6.477c0,-3.575 2.902,-6.477 6.477,-6.477Zm17.21,0c3.575,0 6.477,2.902 6.477,6.477c0,3.575 -2.902,6.477 -6.477,6.477c-3.575,0 -6.477,-2.902 -6.477,-6.477c0,-3.575 2.902,-6.477 6.477,-6.477Zm17.21,0c3.575,0 6.477,2.902 6.477,6.477c0,3.575 -2.902,6.477 -6.477,6.477c-3.575,0 -6.477,-2.902 -6.477,-6.477c0,-3.575 2.902,-6.477 6.477,-6.477Zm17.21,0c3.575,0 6.477,2.902 6.477,6.477c0,3.575 -2.902,6.477 -6.477,6.477c-3.575,0 -6.477,-2.902 -6.477,-6.477c0,-3.575 2.902,-6.477 6.477,-6.477Zm17.21,0c3.575,0 6.477,2.902 6.477,6.477c0,3.575 -2.902,6.477 -6.477,6.477c-3.575,0 -6.477,-2.902 -6.477,-6.477c0,-3.575 2.902,-6.477 6.477,-6.477Zm17.21,0c3.575,0 6.477,2.902 6.477,6.477c0,3.575 -2.902,6.477 -6.477,6.477c-3.575,0 -6.477,-2.902 -6.477,-6.477c0,-3.575 2.902,-6.477 6.477,-6.477Zm17.21,0c3.575,0 6.477,2.902 6.477,6.477c0,3.575 -2.902,6.477 -6.477,6.477c-3.575,0 -6.477,-2.902 -6.477,-6.477c0,-3.575 2.902,-6.477 6.477,-6.477Zm17.21,0c3.575,0 6.477,2.902 6.477,6.477c0,3.575 -2.902,6.477 -6.477,6.477c-3.575,0 -6.477,-2.902 -6.477,-6.477c0,-3.575 2.902,-6.477 6.477,-6.477Zm17.21,0c3.575,0 6.477,2.902 6.477,6.477c0,3.575 -2.902,6.477 -6.477,6.477c-3.575,0 -6.477,-2.902 -6.477,-6.477c0,-3.575 2.902,-6.477 6.477,-6.477Zm-206.516,-19.668c3.575,0 6.477,2.902 6.477,6.477c0,3.575 -2.902,6.477 -6.477,6.477c-3.575,0 -6.477,-2.902 -6.477,-6.477c0,-3.575 2.902,-6.477 6.477,-6.477Zm17.21,0c3.575,0 6.477,2.902 6.477,6.477c0,3.575 -2.902,6.477 -6.477,6.477c-3.575,0 -6.477,-2.902 -6.477,-6.477c0,-3.575 2.902,-6.477 6.477,-6.477Zm17.21,0c3.575,0 6.477,2.902 6.477,6.477c0,3.575 -2.902,6.477 -6.477,6.477c-3.575,0 -6.477,-2.902 -6.477,-6.477c0,-3.575 2.902,-6.477 6.477,-6.477Zm17.21,0c3.575,0 6.477,2.902 6.477,6.477c0,3.575 -2.902,6.477 -6.477,6.477c-3.575,0 -6.477,-2.902 -6.477,-6.477c0,-3.575 2.902,-6.477 6.477,-6.477Zm17.21,0c3.575,0 6.477,2.902 6.477,6.477c0,3.575 -2.902,6.477 -6.477,6.477c-3.575,0 -6.477,-2.902 -6.477,-6.477c0,-3.575 2.902,-6.477 6.477,-6.477Zm17.21,0c3.575,0 6.477,2.902 6.477,6.477c0,3.575 -2.902,6.477 -6.477,6.477c-3.575,0 -6.477,-2.902 -6.477,-6.477c0,-3.575 2.902,-6.477 6.477,-6.477Zm17.21,0c3.575,0 6.477,2.902 6.477,6.477c0,3.575 -2.902,6.477 -6.477,6.477c-3.575,0 -6.477,-2.902 -6.477,-6.477c0,-3.575 2.902,-6.477 6.477,-6.477Zm17.21,0c3.575,0 6.477,2.902 6.477,6.477c0,3.575 -2.902,6.477 -6.477,6.477c-3.575,0 -6.477,-2.902 -6.477,-6.477c0,-3.575 2.902,-6.477 6.477,-6.477Zm17.21,0c3.575,0 6.477,2.902 6.477,6.477c0,3.575 -2.902,6.477 -6.477,6.477c-3.575,0 -6.477,-2.902 -6.477,-6.477c0,-3.575 2.902,-6.477 6.477,-6.477Zm17.21,0c3.575,0 6.477,2.902 6.477,6.477c0,3.575 -2.902,6.477 -6.477,6.477c-3.575,0 -6.477,-2.902 -6.477,-6.477c0,-3.575 2.902,-6.477 6.477,-6.477Zm17.21,0c3.575,0 6.477,2.902 6.477,6.477c0,3.575 -2.902,6.477 -6.477,6.477c-3.575,0 -6.477,-2.902 -6.477,-6.477c0,-3.575 2.902,-6.477 6.477,-6.477Zm17.21,0c3.575,0 6.477,2.902 6.477,6.477c0,3.575 -2.902,6.477 -6.477,6.477c-3.575,0 -6.477,-2.902 -6.477,-6.477c0,-3.575 2.902,-6.477 6.477,-6.477Zm17.21,0c3.575,0 6.477,2.902 6.477,6.477c0,3.575 -2.902,6.477 -6.477,6.477c-3.575,0 -6.477,-2.902 -6.477,-6.477c0,-3.575 2.902,-6.477 6.477,-6.477Zm-206.516,-19.668c3.575,0 6.477,2.902 6.477,6.477c0,3.575 -2.902,6.477 -6.477,6.477c-3.575,0 -6.477,-2.902 -6.477,-6.477c0,-3.575 2.902,-6.477 6.477,-6.477Zm17.21,0c3.575,0 6.477,2.902 6.477,6.477c0,3.575 -2.902,6.477 -6.477,6.477c-3.575,0 -6.477,-2.902 -6.477,-6.477c0,-3.575 2.902,-6.477 6.477,-6.477Zm17.21,0c3.575,0 6.477,2.902 6.477,6.477c0,3.575 -2.902,6.477 -6.477,6.477c-3.575,0 -6.477,-2.902 -6.477,-6.477c0,-3.575 2.902,-6.477 6.477,-6.477Zm17.21,0c3.575,0 6.477,2.902 6.477,6.477c0,3.575 -2.902,6.477 -6.477,6.477c-3.575,0 -6.477,-2.902 -6.477,-6.477c0,-3.575 2.902,-6.477 6.477,-6.477Zm17.21,0c3.575,0 6.477,2.902 6.477,6.477c0,3.575 -2.902,6.477 -6.477,6.477c-3.575,0 -6.477,-2.902 -6.477,-6.477c0,-3.575 2.902,-6.477 6.477,-6.477Zm17.21,0c3.575,0 6.477,2.902 6.477,6.477c0,3.575 -2.902,6.477 -6.477,6.477c-3.575,0 -6.477,-2.902 -6.477,-6.477c0,-3.575 2.902,-6.477 6.477,-6.477Zm17.21,0c3.575,0 6.477,2.902 6.477,6.477c0,3.575 -2.902,6.477 -6.477,6.477c-3.575,0 -6.477,-2.902 -6.477,-6.477c0,-3.575 2.902,-6.477 6.477,-6.477Zm17.21,0c3.575,0 6.477,2.902 6.477,6.477c0,3.575 -2.902,6.477 -6.477,6.477c-3.575,0 -6.477,-2.902 -6.477,-6.477c0,-3.575 2.902,-6.477 6.477,-6.477Zm17.21,0c3.575,0 6.477,2.902 6.477,6.477c0,3.575 -2.902,6.477 -6.477,6.477c-3.575,0 -6.477,-2.902 -6.477,-6.477c0,-3.575 2.902,-6.477 6.477,-6.477Zm17.21,0c3.575,0 6.477,2.902 6.477,6.477c0,3.575 -2.902,6.477 -6.477,6.477c-3.575,0 -6.477,-2.902 -6.477,-6.477c0,-3.575 2.902,-6.477 6.477,-6.477Zm17.21,0c3.575,0 6.477,2.902 6.477,6.477c0,3.575 -2.902,6.477 -6.477,6.477c-3.575,0 -6.477,-2.902 -6.477,-6.477c0,-3.575 2.902,-6.477 6.477,-6.477Zm17.21,0c3.575,0 6.477,2.902 6.477,6.477c0,3.575 -2.902,6.477 -6.477,6.477c-3.575,0 -6.477,-2.902 -6.477,-6.477c0,-3.575 2.902,-6.477 6.477,-6.477Zm17.21,0c3.575,0 6.477,2.902 6.477,6.477c0,3.575 -2.902,6.477 -6.477,6.477c-3.575,0 -6.477,-2.902 -6.477,-6.477c0,-3.575 2.902,-6.477 6.477,-6.477Zm-206.516,-19.668c3.575,0 6.477,2.902 6.477,6.477c0,3.575 -2.902,6.477 -6.477,6.477c-3.575,0 -6.477,-2.902 -6.477,-6.477c0,-3.575 2.902,-6.477 6.477,-6.477Zm17.21,0c3.575,0 6.477,2.902 6.477,6.477c0,3.575 -2.902,6.477 -6.477,6.477c-3.575,0 -6.477,-2.902 -6.477,-6.477c0,-3.575 2.902,-6.477 6.477,-6.477Zm17.21,0c3.575,0 6.477,2.902 6.477,6.477c0,3.575 -2.902,6.477 -6.477,6.477c-3.575,0 -6.477,-2.902 -6.477,-6.477c0,-3.575 2.902,-6.477 6.477,-6.477Zm17.21,0c3.575,0 6.477,2.902 6.477,6.477c0,3.575 -2.902,6.477 -6.477,6.477c-3.575,0 -6.477,-2.902 -6.477,-6.477c0,-3.575 2.902,-6.477 6.477,-6.477Zm17.21,0c3.575,0 6.477,2.902 6.477,6.477c0,3.575 -2.902,6.477 -6.477,6.477c-3.575,0 -6.477,-2.902 -6.477,-6.477c0,-3.575 2.902,-6.477 6.477,-6.477Zm17.21,0c3.575,0 6.477,2.902 6.477,6.477c0,3.575 -2.902,6.477 -6.477,6.477c-3.575,0 -6.477,-2.902 -6.477,-6.477c0,-3.575 2.902,-6.477 6.477,-6.477Zm17.21,0c3.575,0 6.477,2.902 6.477,6.477c0,3.575 -2.902,6.477 -6.477,6.477c-3.575,0 -6.477,-2.902 -6.477,-6.477c0,-3.575 2.902,-6.477 6.477,-6.477Zm17.21,0c3.575,0 6.477,2.902 6.477,6.477c0,3.575 -2.902,6.477 -6.477,6.477c-3.575,0 -6.477,-2.902 -6.477,-6.477c0,-3.575 2.902,-6.477 6.477,-6.477Zm17.21,0c3.575,0 6.477,2.902 6.477,6.477c0,3.575 -2.902,6.477 -6.477,6.477c-3.575,0 -6.477,-2.902 -6.477,-6.477c0,-3.575 2.902,-6.477 6.477,-6.477Zm17.21,0c3.575,0 6.477,2.902 6.477,6.477c0,3.575 -2.902,6.477 -6.477,6.477c-3.575,0 -6.477,-2.902 -6.477,-6.477c0,-3.575 2.902,-6.477 6.477,-6.477Zm17.21,0c3.575,0 6.477,2.902 6.477,6.477c0,3.575 -2.902,6.477 -6.477,6.477c-3.575,0 -6.477,-2.902 -6.477,-6.477c0,-3.575 2.902,-6.477 6.477,-6.477Zm17.21,0c3.575,0 6.477,2.902 6.477,6.477c0,3.575 -2.902,6.477 -6.477,6.477c-3.575,0 -6.477,-2.902 -6.477,-6.477c0,-3.575 2.902,-6.477 6.477,-6.477Zm17.21,0c3.575,0 6.477,2.902 6.477,6.477c0,3.575 -2.902,6.477 -6.477,6.477c-3.575,0 -6.477,-2.902 -6.477,-6.477c0,-3.575 2.902,-6.477 6.477,-6.477Zm-206.516,-19.668c3.575,0 6.477,2.902 6.477,6.477c0,3.575 -2.902,6.477 -6.477,6.477c-3.575,0 -6.477,-2.902 -6.477,-6.477c0,-3.575 2.902,-6.477 6.477,-6.477Zm17.21,0c3.575,0 6.477,2.902 6.477,6.477c0,3.575 -2.902,6.477 -6.477,6.477c-3.575,0 -6.477,-2.902 -6.477,-6.477c0,-3.575 2.902,-6.477 6.477,-6.477Zm17.21,0c3.575,0 6.477,2.902 6.477,6.477c0,3.575 -2.902,6.477 -6.477,6.477c-3.575,0 -6.477,-2.902 -6.477,-6.477c0,-3.575 2.902,-6.477 6.477,-6.477Zm17.21,0c3.575,0 6.477,2.902 6.477,6.477c0,3.575 -2.902,6.477 -6.477,6.477c-3.575,0 -6.477,-2.902 -6.477,-6.477c0,-3.575 2.902,-6.477 6.477,-6.477Zm17.21,0c3.575,0 6.477,2.902 6.477,6.477c0,3.575 -2.902,6.477 -6.477,6.477c-3.575,0 -6.477,-2.902 -6.477,-6.477c0,-3.575 2.902,-6.477 6.477,-6.477Zm17.21,0c3.575,0 6.477,2.902 6.477,6.477c0,3.575 -2.902,6.477 -6.477,6.477c-3.575,0 -6.477,-2.902 -6.477,-6.477c0,-3.575 2.902,-6.477 6.477,-6.477Zm17.21,0c3.575,0 6.477,2.902 6.477,6.477c0,3.575 -2.902,6.477 -6.477,6.477c-3.575,0 -6.477,-2.902 -6.477,-6.477c0,-3.575 2.902,-6.477 6.477,-6.477Zm17.21,0c3.575,0 6.477,2.902 6.477,6.477c0,3.575 -2.902,6.477 -6.477,6.477c-3.575,0 -6.477,-2.902 -6.477,-6.477c0,-3.575 2.902,-6.477 6.477,-6.477Zm17.21,0c3.575,0 6.477,2.902 6.477,6.477c0,3.575 -2.902,6.477 -6.477,6.477c-3.575,0 -6.477,-2.902 -6.477,-6.477c0,-3.575 2.902,-6.477 6.477,-6.477Zm17.21,0c3.575,0 6.477,2.902 6.477,6.477c0,3.575 -2.902,6.477 -6.477,6.477c-3.575,0 -6.477,-2.902 -6.477,-6.477c0,-3.575 2.902,-6.477 6.477,-6.477Zm17.21,0c3.575,0 6.477,2.902 6.477,6.477c0,3.575 -2.902,6.477 -6.477,6.477c-3.575,0 -6.477,-2.902 -6.477,-6.477c0,-3.575 2.902,-6.477 6.477,-6.477Zm17.21,0c3.575,0 6.477,2.902 6.477,6.477c0,3.575 -2.902,6.477 -6.477,6.477c-3.575,0 -6.477,-2.902 -6.477,-6.477c0,-3.575 2.902,-6.477 6.477,-6.477Zm17.21,0c3.575,0 6.477,2.902 6.477,6.477c0,3.575 -2.902,6.477 -6.477,6.477c-3.575,0 -6.477,-2.902 -6.477,-6.477c0,-3.575 2.902,-6.477 6.477,-6.477Zm-206.516,-19.668c3.575,0 6.477,2.902 6.477,6.477c0,3.575 -2.902,6.477 -6.477,6.477c-3.575,0 -6.477,-2.902 -6.477,-6.477c0,-3.575 2.902,-6.477 6.477,-6.477Zm17.21,0c3.575,0 6.477,2.902 6.477,6.477c0,3.575 -2.902,6.477 -6.477,6.477c-3.575,0 -6.477,-2.902 -6.477,-6.477c0,-3.575 2.902,-6.477 6.477,-6.477Zm17.21,0c3.575,0 6.477,2.902 6.477,6.477c0,3.575 -2.902,6.477 -6.477,6.477c-3.575,0 -6.477,-2.902 -6.477,-6.477c0,-3.575 2.902,-6.477 6.477,-6.477Zm17.21,0c3.575,0 6.477,2.902 6.477,6.477c0,3.575 -2.902,6.477 -6.477,6.477c-3.575,0 -6.477,-2.902 -6.477,-6.477c0,-3.575 2.902,-6.477 6.477,-6.477Zm17.21,0c3.575,0 6.477,2.902 6.477,6.477c0,3.575 -2.902,6.477 -6.477,6.477c-3.575,0 -6.477,-2.902 -6.477,-6.477c0,-3.575 2.902,-6.477 6.477,-6.477Zm17.21,0c3.575,0 6.477,2.902 6.477,6.477c0,3.575 -2.902,6.477 -6.477,6.477c-3.575,0 -6.477,-2.902 -6.477,-6.477c0,-3.575 2.902,-6.477 6.477,-6.477Zm17.21,0c3.575,0 6.477,2.902 6.477,6.477c0,3.575 -2.902,6.477 -6.477,6.477c-3.575,0 -6.477,-2.902 -6.477,-6.477c0,-3.575 2.902,-6.477 6.477,-6.477Zm17.21,0c3.575,0 6.477,2.902 6.477,6.477c0,3.575 -2.902,6.477 -6.477,6.477c-3.575,0 -6.477,-2.902 -6.477,-6.477c0,-3.575 2.902,-6.477 6.477,-6.477Zm17.21,0c3.575,0 6.477,2.902 6.477,6.477c0,3.575 -2.902,6.477 -6.477,6.477c-3.575,0 -6.477,-2.902 -6.477,-6.477c0,-3.575 2.902,-6.477 6.477,-6.477Zm17.21,0c3.575,0 6.477,2.902 6.477,6.477c0,3.575 -2.902,6.477 -6.477,6.477c-3.575,0 -6.477,-2.902 -6.477,-6.477c0,-3.575 2.902,-6.477 6.477,-6.477Zm17.21,0c3.575,0 6.477,2.902 6.477,6.477c0,3.575 -2.902,6.477 -6.477,6.477c-3.575,0 -6.477,-2.902 -6.477,-6.477c0,-3.575 2.902,-6.477 6.477,-6.477Zm17.21,0c3.575,0 6.477,2.902 6.477,6.477c0,3.575 -2.902,6.477 -6.477,6.477c-3.575,0 -6.477,-2.902 -6.477,-6.477c0,-3.575 2.902,-6.477 6.477,-6.477Zm17.21,0c3.575,0 6.477,2.902 6.477,6.477c0,3.575 -2.902,6.477 -6.477,6.477c-3.575,0 -6.477,-2.902 -6.477,-6.477c0,-3.575 2.902,-6.477 6.477,-6.477Zm-206.516,-19.668c3.575,0 6.477,2.902 6.477,6.477c0,3.575 -2.902,6.477 -6.477,6.477c-3.575,0 -6.477,-2.902 -6.477,-6.477c0,-3.575 2.902,-6.477 6.477,-6.477Zm17.21,0c3.575,0 6.477,2.902 6.477,6.477c0,3.575 -2.902,6.477 -6.477,6.477c-3.575,0 -6.477,-2.902 -6.477,-6.477c0,-3.575 2.902,-6.477 6.477,-6.477Zm17.21,0c3.575,0 6.477,2.902 6.477,6.477c0,3.575 -2.902,6.477 -6.477,6.477c-3.575,0 -6.477,-2.902 -6.477,-6.477c0,-3.575 2.902,-6.477 6.477,-6.477Zm17.21,0c3.575,0 6.477,2.902 6.477,6.477c0,3.575 -2.902,6.477 -6.477,6.477c-3.575,0 -6.477,-2.902 -6.477,-6.477c0,-3.575 2.902,-6.477 6.477,-6.477Zm17.21,0c3.575,0 6.477,2.902 6.477,6.477c0,3.575 -2.902,6.477 -6.477,6.477c-3.575,0 -6.477,-2.902 -6.477,-6.477c0,-3.575 2.902,-6.477 6.477,-6.477Zm17.21,0c3.575,0 6.477,2.902 6.477,6.477c0,3.575 -2.902,6.477 -6.477,6.477c-3.575,0 -6.477,-2.902 -6.477,-6.477c0,-3.575 2.902,-6.477 6.477,-6.477Zm17.21,0c3.575,0 6.477,2.902 6.477,6.477c0,3.575 -2.902,6.477 -6.477,6.477c-3.575,0 -6.477,-2.902 -6.477,-6.477c0,-3.575 2.902,-6.477 6.477,-6.477Zm17.21,0c3.575,0 6.477,2.902 6.477,6.477c0,3.575 -2.902,6.477 -6.477,6.477c-3.575,0 -6.477,-2.902 -6.477,-6.477c0,-3.575 2.902,-6.477 6.477,-6.477Zm17.21,0c3.575,0 6.477,2.902 6.477,6.477c0,3.575 -2.902,6.477 -6.477,6.477c-3.575,0 -6.477,-2.902 -6.477,-6.477c0,-3.575 2.902,-6.477 6.477,-6.477Zm17.21,0c3.575,0 6.477,2.902 6.477,6.477c0,3.575 -2.902,6.477 -6.477,6.477c-3.575,0 -6.477,-2.902 -6.477,-6.477c0,-3.575 2.902,-6.477 6.477,-6.477Zm17.21,0c3.575,0 6.477,2.902 6.477,6.477c0,3.575 -2.902,6.477 -6.477,6.477c-3.575,0 -6.477,-2.902 -6.477,-6.477c0,-3.575 2.902,-6.477 6.477,-6.477Zm17.21,0c3.575,0 6.477,2.902 6.477,6.477c0,3.575 -2.902,6.477 -6.477,6.477c-3.575,0 -6.477,-2.902 -6.477,-6.477c0,-3.575 2.902,-6.477 6.477,-6.477Zm17.21,0c3.575,0 6.477,2.902 6.477,6.477c0,3.575 -2.902,6.477 -6.477,6.477c-3.575,0 -6.477,-2.902 -6.477,-6.477c0,-3.575 2.902,-6.477 6.477,-6.477Zm-206.516,-19.668c3.575,0 6.477,2.902 6.477,6.477c0,3.575 -2.902,6.477 -6.477,6.477c-3.575,0 -6.477,-2.902 -6.477,-6.477c0,-3.575 2.902,-6.477 6.477,-6.477Zm17.21,0c3.575,0 6.477,2.902 6.477,6.477c0,3.575 -2.902,6.477 -6.477,6.477c-3.575,0 -6.477,-2.902 -6.477,-6.477c0,-3.575 2.902,-6.477 6.477,-6.477Zm17.21,0c3.575,0 6.477,2.902 6.477,6.477c0,3.575 -2.902,6.477 -6.477,6.477c-3.575,0 -6.477,-2.902 -6.477,-6.477c0,-3.575 2.902,-6.477 6.477,-6.477Zm17.21,0c3.575,0 6.477,2.902 6.477,6.477c0,3.575 -2.902,6.477 -6.477,6.477c-3.575,0 -6.477,-2.902 -6.477,-6.477c0,-3.575 2.902,-6.477 6.477,-6.477Zm17.21,0c3.575,0 6.477,2.902 6.477,6.477c0,3.575 -2.902,6.477 -6.477,6.477c-3.575,0 -6.477,-2.902 -6.477,-6.477c0,-3.575 2.902,-6.477 6.477,-6.477Zm17.21,0c3.575,0 6.477,2.902 6.477,6.477c0,3.575 -2.902,6.477 -6.477,6.477c-3.575,0 -6.477,-2.902 -6.477,-6.477c0,-3.575 2.902,-6.477 6.477,-6.477Zm17.21,0c3.575,0 6.477,2.902 6.477,6.477c0,3.575 -2.902,6.477 -6.477,6.477c-3.575,0 -6.477,-2.902 -6.477,-6.477c0,-3.575 2.902,-6.477 6.477,-6.477Zm17.21,0c3.575,0 6.477,2.902 6.477,6.477c0,3.575 -2.902,6.477 -6.477,6.477c-3.575,0 -6.477,-2.902 -6.477,-6.477c0,-3.575 2.902,-6.477 6.477,-6.477Zm17.21,0c3.575,0 6.477,2.902 6.477,6.477c0,3.575 -2.902,6.477 -6.477,6.477c-3.575,0 -6.477,-2.902 -6.477,-6.477c0,-3.575 2.902,-6.477 6.477,-6.477Zm17.21,0c3.575,0 6.477,2.902 6.477,6.477c0,3.575 -2.902,6.477 -6.477,6.477c-3.575,0 -6.477,-2.902 -6.477,-6.477c0,-3.575 2.902,-6.477 6.477,-6.477Zm17.21,0c3.575,0 6.477,2.902 6.477,6.477c0,3.575 -2.902,6.477 -6.477,6.477c-3.575,0 -6.477,-2.902 -6.477,-6.477c0,-3.575 2.902,-6.477 6.477,-6.477Zm17.21,0c3.575,0 6.477,2.902 6.477,6.477c0,3.575 -2.902,6.477 -6.477,6.477c-3.575,0 -6.477,-2.902 -6.477,-6.477c0,-3.575 2.902,-6.477 6.477,-6.477Zm17.21,0c3.575,0 6.477,2.902 6.477,6.477c0,3.575 -2.902,6.477 -6.477,6.477c-3.575,0 -6.477,-2.902 -6.477,-6.477c0,-3.575 2.902,-6.477 6.477,-6.477Z" style="fill:url(#_Linear4);"/></g></g><defs><radialGradient id="_Radial2" cx="0" cy="0" r="1" gradientUnits="userSpaceOnUse" gradientTransform="matrix(134.879295,0,0,134.879295,100,110.218128)"><stop offset="0" style="stop-color:#ff2100;stop-opacity:1"/><stop offset="1" style="stop-color:#960d0f;stop-opacity:1"/></radialGradient><linearGradient id="_Linear4" x1="0" y1="0" x2="1" y2="0" gradientUnits="userSpaceOnUse" gradientTransform="matrix(0,-106.396253,106.396253,0,100,135.228393)"><stop offset="0" style="stop-color:#ff1800;stop-opacity:0.25"/><stop offset="1" style="stop-color:#9f0f0e;stop-opacity:0.25"/></linearGradient></defs></svg>