<?xml version="1.0" encoding="UTF-8" standalone="no"?><!DOCTYPE svg PUBLIC "-//W3C//DTD SVG 1.1//EN" "http://www.w3.org/Graphics/SVG/1.1/DTD/svg11.dtd"><svg width="100%" height="100%" viewBox="0 0 128 174" version="1.1" xmlns="http://www.w3.org/2000/svg" xmlns:xlink="http://www.w3.org/1999/xlink" xml:space="preserve" xmlns:serif="http://www.serif.com/" style="fill-rule:evenodd;clip-rule:evenodd;stroke-linejoin:round;stroke-miterlimit:2;"><g id="play"><path d="M104.566,77.109c4.945,3.215 7.928,8.712 7.928,14.61c-0,5.898 -2.983,11.396 -7.928,14.61c-21.562,14.017 -54.142,35.196 -77.08,50.107c-5.358,3.483 -12.192,3.754 -17.809,0.706c-5.617,-3.048 -9.114,-8.926 -9.114,-15.316c0,-28.941 0,-71.272 0,-100.213c-0,-6.39 3.498,-12.268 9.114,-15.316c5.617,-3.048 12.451,-2.777 17.809,0.706c22.938,14.911 55.518,36.09 77.08,50.107Z" style="fill:#378ede;"/><path d="M104.566,67.992c4.945,3.215 7.928,8.712 7.928,14.61c-0,5.898 -2.983,11.396 -7.928,14.61c-21.562,14.017 -54.142,35.196 -77.08,50.107c-5.358,3.483 -12.192,3.754 -17.809,0.706c-5.617,-3.048 -9.114,-8.926 -9.114,-15.316c0,-28.941 0,-71.272 0,-100.213c-0,-6.39 3.498,-12.268 9.114,-15.316c5.617,-3.048 12.451,-2.777 17.809,0.706c22.938,14.911 55.518,36.09 77.08,50.107Z" style="fill:#86ceff;"/><path d="M35.107,27.156c8.6,4.268 13.673,11.581 11.321,16.32c-2.352,4.739 -11.243,5.121 -19.844,0.853c-8.6,-4.268 -13.673,-11.581 -11.321,-16.32c2.352,-4.739 11.243,-5.121 19.844,-0.853Z" style="fill:#fff;fill-opacity:0.5;"/></g></svg>